PathFileType	4	(X/Y/Z)	C:/Users/Carlo/Dropbox/Carlos/SARAH/CongressoMarcha2025/WorkshopOpenSim/C3D/Caso01/Cal 01.c3d.trc
DataRate	CameraRate	NumFrames	NumMarkers	Units	OrigDataRate	OrigDataStartFrame	OrigNumFrames
100.000000	100.000000	4	70	mm	100.000000	133	178
Frame#	Time	LASI			RASI			LPSI			RPSI			LTHI			LKNE			LTIB			LANK			LHEE			LTOE			RTHI			RKNE			RTIB			RANK			RHEE			RTOE			PELO			PELA			PELL			PELP			LFEO			LFEA			LFEL			LFEP			LTIO			LTIA			LTIL			LTIP			LFOO			LFOA			LFOL			LFOP			LTOO			LTOA			LTOL			LTOP			RFEO			RFEA			RFEL			RFEP			RTIO			RTIA			RTIL			RTIP			RFOO			RFOA			RFOL			RFOP			RTOO			RTOA			RTOL			RTOP			LHipAngles			LKneeAngles			LAbsAnkleAngle			LAnkleAngles			RHipAngles			RKneeAngles			RAnkleAngles			RAbsAnkleAngle			LPelvisAngles			RPelvisAngles			LFootProgressAngles			RFootProgressAngles			LHJC			RHJC			LKJC			RKJC			LAJC			RAJC			
		X1	Y1	Z1	X2	Y2	Z2	X3	Y3	Z3	X4	Y4	Z4	X5	Y5	Z5	X6	Y6	Z6	X7	Y7	Z7	X8	Y8	Z8	X9	Y9	Z9	X10	Y10	Z10	X11	Y11	Z11	X12	Y12	Z12	X13	Y13	Z13	X14	Y14	Z14	X15	Y15	Z15	X16	Y16	Z16	X17	Y17	Z17	X18	Y18	Z18	X19	Y19	Z19	X20	Y20	Z20	X21	Y21	Z21	X22	Y22	Z22	X23	Y23	Z23	X24	Y24	Z24	X25	Y25	Z25	X26	Y26	Z26	X27	Y27	Z27	X28	Y28	Z28	X29	Y29	Z29	X30	Y30	Z30	X31	Y31	Z31	X32	Y32	Z32	X33	Y33	Z33	X34	Y34	Z34	X35	Y35	Z35	X36	Y36	Z36	X37	Y37	Z37	X38	Y38	Z38	X39	Y39	Z39	X40	Y40	Z40	X41	Y41	Z41	X42	Y42	Z42	X43	Y43	Z43	X44	Y44	Z44	X45	Y45	Z45	X46	Y46	Z46	X47	Y47	Z47	X48	Y48	Z48	X49	Y49	Z49	X50	Y50	Z50	X51	Y51	Z51	X52	Y52	Z52	X53	Y53	Z53	X54	Y54	Z54	X55	Y55	Z55	X56	Y56	Z56	X57	Y57	Z57	X58	Y58	Z58	X59	Y59	Z59	X60	Y60	Z60	X61	Y61	Z61	X62	Y62	Z62	X63	Y63	Z63	X64	Y64	Z64	X65	Y65	Z65	X66	Y66	Z66	X67	Y67	Z67	X68	Y68	Z68	X69	Y69	Z69	X70	Y70	Z70	

134	1.33	59.39944076538089	1047.144165039063	-310.571746826172	74.83870697021487	1056.926147460938	-523.7894287109377	253.4746246337892	1063.402221679688	-342.3955993652345	266.344696044922	1064.420166015625	-453.7927551269534	122.3734588623047	749.6248168945315	-216.3778686523439	126.8153991699219	539.4448852539065	-252.1186981201173	158.0130157470704	302.7302856445314	-219.0771789550782	175.9837188720704	100.0766296386719	-223.3208007812501	238.5476837158204	55.96097564697268	-265.4732666015626	13.00310802459718	63.32508468627933	-247.7345733642579	128.6172790527344	817.0908813476567	-611.8377075195315	118.5763931274415	537.7805175781252	-575.2232666015627	150.2926025390626	383.8223571777345	-604.5194091796877	180.0339355468751	96.63932800292974	-598.9151611328127	246.2764129638673	58.89374542236331	-553.6174316406252	21.84934043884278	62.85487747192386	-576.8829345703127	120.3867645263672	958.2001953125005	-417.6283874511721	-7.926528930664066	950.1708374023442	-427.288024902344	111.085189819336	952.3068847656255	-289.1728515625001	111.9452285766602	1086.741455078125	-412.3424072265627	126.1662521362305	533.4660644531252	-309.8060607910157	-297.8578491210939	523.5180664062502	-304.0036621093751	130.9136352539063	577.1918945312502	112.0879516601563	115.6737136840821	955.2695312500005	-353.4044494628907	171.058822631836	95.31120300292972	-268.3017578125001	-246.2704620361329	57.26248931884768	-218.5778961181642	216.7359771728517	139.5092163085938	148.8840942382813	128.2363433837891	513.2618408203127	-307.8922119140626	16.65704727172852	87.69531250000003	-240.4001312255861	21.91442108154298	305.746063232422	-264.0768127441407	34.51473999023439	110.8746337890626	-22.96469116210938	235.2612762451173	80.55775451660159	-257.5929260253907	-56.21101760864261	90.07447814941409	-234.6691894531251	-54.45858001708987	162.758041381836	-242.5613861083986	-50.25844573974612	97.80088806152349	-162.1907348632813	16.65703964233399	87.6953048706055	-240.4001312255861	115.1296310424805	533.0039672851565	-518.5284423828127	-313.778533935547	545.1385498046877	-543.5816040039065	89.13919067382815	496.9859924316409	-91.01898193359378	125.0997772216797	961.130737304688	-481.8523254394534	170.5152435302735	91.84061431884768	-553.653503417969	-243.1059417724611	47.2152442932129	-645.3708496093752	83.30930328369143	47.87697601318361	-138.9870300292969	117.6132354736329	513.2214355468752	-520.1035156250002	17.48138618469239	81.91602325439456	-585.258483886719	18.89839172363282	299.3456115722657	-561.9082641601565	-5.344985961914064	58.83994293212893	-368.9963378906251	234.9665985107423	78.07740020751956	-562.7126464843752	-55.01368331909183	83.19556427001956	-592.7738037109377	-54.54133605957034	155.6720886230469	-584.990417480469	-62.62252044677737	75.50354003906253	-520.6864013671877	17.48139572143555	81.9160079956055	-585.258483886719	-8.399622917175297	-5.03488874435425	1.715192914009095	0.4381795823574068	-5.55689859390259	4.412081718444826	0	0	7.237236976623539	4.247585627410041e-13	1.545529603958131	7.239868164062504	-2.167113780975343	0.7240986824035647	5.254482269287111	-0.1691692620515824	-8.432964324951175	8.467864036560062	3.724549965319903e-13	5.820773124694826	7.667830944061283	0	0	7.628065586090091	-2.349766492843629	4.300451278686525	3.757325887680055	2.349766492843629	-4.300451278686525	3.757325887680055	-6.214470863342289	-4.494572639465334	-91.87006378173831	-6.162465095520023	-5.917579650878908	-91.01116180419925	115.6737136840821	955.2695922851567	-353.4044189453126	125.0998077392579	961.1307983398442	-481.8523559570315	126.1662521362305	533.4660644531252	-309.8060913085939	115.1296310424805	533.0039062500002	-518.5284423828127	171.058822631836	95.31120300292972	-268.3017578125001	170.5152435302735	91.84060668945315	-553.6535644531252	
135	1.34	59.39236450195315	1047.158569335938	-310.6308593750001	74.87557220458987	1056.874267578125	-523.8077392578127	253.5137634277345	1063.435424804688	-342.4320068359376	266.3698730468751	1064.468627929688	-453.837341308594	122.3414306640626	749.6033325195315	-216.3935852050782	126.7064285278321	539.3980712890627	-252.1087493896486	157.9322509765626	302.7208251953126	-219.0389251708986	175.9421081542969	100.0518493652344	-223.3227386474611	238.5838775634767	56.00329589843753	-265.4804077148439	12.97847270965577	63.29323196411136	-247.7411193847657	128.646469116211	817.0437622070317	-611.8294067382815	118.6532592773438	537.7374267578127	-575.182067871094	150.3705596923829	383.7754211425782	-604.4983520507815	180.0459899902344	96.59951782226568	-598.8923950195315	246.2843170166017	58.9208679199219	-553.6253051757815	21.84503173828126	62.81249618530276	-576.8486328125002	120.4261169433594	958.1951293945317	-417.6246337890627	-7.882827758789066	950.1293334960942	-427.3114318847659	111.0962982177735	952.3406372070317	-289.1693725585939	111.949935913086	1086.735961914063	-412.3818969726565	126.0490112304688	533.4192504882815	-309.7960205078126	-298.0359191894532	523.6192626953127	-303.9473876953126	130.8576354980469	577.1509399414065	112.1550292968751	115.6989669799805	955.2838745117192	-353.4008178710939	171.0236358642579	95.28714752197268	-268.3044738769532	-246.2887420654298	57.15347290039065	-218.6346740722657	216.6394042968751	139.4768066406251	148.8733520507813	128.1229705810547	513.2153320312502	-307.8826904296876	16.62386894226075	87.61831665039065	-240.4062805175782	21.80914115905762	305.672088623047	-264.0707092285157	34.46961212158205	110.7914657592774	-22.96919250488282	235.2307891845704	80.55447387695315	-257.5952148437501	-56.24509429931643	89.97291564941409	-234.6766052246095	-54.5166931152344	162.6575012207032	-242.5647277832032	-50.29649353027347	97.69728088378912	-162.1976013183594	16.62386322021485	87.61832427978518	-240.4062652587892	115.2257995605469	532.9652099609377	-518.4857177734377	-313.7020568847657	545.0428466796877	-543.399108886719	89.38029479980472	496.979431152344	-90.95477294921878	125.1532669067383	961.106323242188	-481.8484497070315	170.5216369628907	91.79997253417972	-553.632019042969	-243.0920715332032	47.26778030395509	-645.393005371094	83.26544189453128	47.82952880859376	-138.9845886230469	117.7054138183594	513.1821289062502	-520.0617675781252	17.48478317260743	81.82734680175784	-585.2073364257815	18.83964538574219	299.2582092285157	-561.8652343750002	-5.293113708496096	58.75206375122073	-368.9399719238282	234.9754638671876	78.05615997314456	-562.7030029296877	-55.01211166381839	83.08439636230472	-592.7087402343752	-54.56050491333011	155.5613250732422	-584.9279785156252	-62.60468292236331	75.39259338378909	-520.6196289062502	17.4847755432129	81.82734680175784	-585.2073364257815	-8.38346099853516	-5.052286624908449	1.749779582023621	0.438581705093384	-5.540480613708498	4.442487239837648	0	0	7.229146480560306	3.658960409506398e-14	1.540495872497559	7.231760025024418	-2.179126739501954	0.7562294006347661	5.265634536743166	-0.1732378005981446	-8.459986686706547	8.450248718261722	-3.325037998842124e-13	5.840658187866213	7.639639377593998	0	0	7.599756717681888	-2.33053755760193	4.312500953674318	3.772696495056154	2.33053755760193	-4.312500953674318	3.772696495056154	-6.211235523223881	-4.493564605712892	-91.85074615478518	-6.160190105438236	-5.906641483306887	-90.99337005615237	115.6989517211915	955.2838745117192	-353.4008178710939	125.1532897949219	961.1063842773442	-481.8484191894534	126.0490112304688	533.4192504882815	-309.7960205078126	115.2257995605469	532.965270996094	-518.4857177734377	171.0236358642579	95.28715515136722	-268.3044738769532	170.5216522216797	91.79997253417972	-553.632019042969	
136	1.35	59.38581466674808	1047.0625	-310.6163940429689	74.87239837646487	1056.765258789063	-523.7935180664065	253.5197143554689	1063.434814453125	-342.4860839843751	266.3791809082032	1064.463256835938	-453.8858642578127	122.217140197754	749.481872558594	-216.4088745117189	126.5835876464844	539.2183227539065	-252.0938873291017	157.8784332275391	302.678192138672	-218.9673309326173	175.7963256835938	99.90449523925787	-223.3401489257814	238.5675354003907	56.01186752319339	-265.4934692382814	12.92721176147462	63.22771453857425	-247.6905670166017	128.5903625488282	816.9729003906255	-611.7867431640627	118.6689376831055	537.6289062500002	-575.1411132812502	150.3176727294922	383.6618041992189	-604.417419433594	180.0063629150391	96.53509521484381	-598.8638305664065	246.2500610351564	58.90895843505862	-553.6448364257815	21.78792953491212	62.73004531860354	-576.7789306640627	120.466781616211	958.1184082031255	-417.5992736816409	-7.837860107421879	949.9894409179692	-427.2901306152346	111.1349563598633	952.2717285156255	-289.1437988281251	111.9280471801758	1086.655639648438	-412.3692016601565	125.9801864624024	533.2439575195315	-309.782196044922	-298.2097778320314	523.510925292969	-304.3372497558595	130.3948364257813	576.9534301757815	112.2741088867188	115.7385864257813	955.211059570313	-353.3753051757814	170.8187255859376	95.13813781738284	-268.3152160644532	-246.4044799804689	57.18812179565433	-218.1173400878907	216.9782562255861	139.3387451171876	148.7589416503907	128.0480651855469	513.0393066406252	-307.8698120117189	16.42909622192384	87.41838073730472	-240.3750000000001	21.53446960449219	305.4729614257814	-264.0489807128907	34.32583618164064	110.6056671142579	-22.94366455078126	235.0336914062501	80.42754364013675	-257.6228027343751	-56.43910598754886	89.74866485595706	-234.6257476806642	-54.73731994628909	162.4335327148438	-242.5170745849611	-50.47352600097659	97.47776031494146	-162.1486358642579	16.4290885925293	87.41839599609378	-240.3750152587892	115.2932586669922	532.857849121094	-518.4415283203127	-313.6829833984376	544.8759765625002	-542.9699707031252	89.83670806884768	496.8784790039065	-90.86212158203128	125.1949691772462	961.0256347656255	-481.8231201171877	170.5379180908204	91.74180603027347	-553.5910644531252	-243.1357269287111	47.2036590576172	-644.823181152344	83.80506896972659	47.83432006835939	-138.8834838867188	117.7708969116212	513.0745239257815	-520.0179443359377	17.49114608764649	81.71743774414065	-585.1018676757815	18.79194068908692	299.1538696289064	-561.8085937500002	-5.192003250122072	58.68354034423831	-368.8201293945314	234.9920654296876	78.01482391357425	-562.6851806640627	-55.00916290283206	82.95163726806643	-592.5740356445315	-54.57558059692386	155.4304199218751	-584.8095703125002	-62.57014083862308	75.27364349365237	-520.480163574219	17.49114990234376	81.71745300292972	-585.1018676757815	-8.37813758850098	-4.997398853302004	1.793175220489503	0.4426243007183077	-5.668953418731691	4.439890384674074	0	0	7.191730022430423	-9.147670549649813e-14	1.602049469947816	7.194561004638675	-2.180017948150636	0.809181392192841	5.29015111923218	-0.1687244325876237	-8.44090557098389	8.440938949584964	-5.290859438934761e-13	5.795245647430422	7.617331981658939	0	0	7.578176975250248	-2.324910640716554	4.314310073852541	3.800564765930178	2.324910640716554	-4.314310073852541	3.800564765930178	-6.213903427124027	-4.508965492248537	-91.831657409668	-6.146998882293705	-5.883542060852053	-90.97527313232425	115.7385864257813	955.211059570313	-353.3753356933595	125.1949844360352	961.025756835938	-481.823181152344	125.9801864624024	533.2439575195315	-309.782196044922	115.2932586669922	532.857849121094	-518.4415283203127	170.8187255859376	95.13813781738284	-268.3151855468751	170.5379180908204	91.74180603027347	-553.5910644531252	
137	1.36	59.43393325805667	1046.999145507813	-310.6622619628907	74.79008483886722	1056.730224609375	-523.8258056640627	253.5409393310548	1063.41748046875	-342.5085754394532	266.363006591797	1064.441528320313	-453.9309997558596	122.1732788085938	749.453796386719	-216.425750732422	126.571144104004	539.1354980468752	-252.0877075195314	157.8775177001954	302.6223144531251	-218.9627990722657	175.7526855468751	99.86151123046881	-223.3437957763673	238.5494384765626	55.99435043334964	-265.4720764160157	12.89819335937501	63.18202209472659	-247.6944580078126	128.5487976074219	816.9382324218755	-611.7960205078127	118.6663436889649	537.564392089844	-575.1685180664065	150.3206176757813	383.6174926757814	-604.4389648437502	179.9620361328126	96.46788024902349	-598.8533325195315	246.2603302001954	58.90913772583011	-553.649108886719	21.74576950073243	62.68918228149417	-576.7720336914065	120.4670181274415	958.0792846679692	-417.6817626953127	-7.841850280761722	949.9274902343755	-427.2971801757815	111.2128295898438	952.214965820313	-289.2214660644532	111.907341003418	1086.6142578125	-412.4306640625002	126.0059204101563	533.1508789062502	-309.775360107422	-298.2406616210939	523.4033813476565	-304.607391357422	130.1416778564454	576.9407348632815	112.3291320800782	115.7776565551758	955.1630859375005	-353.4554443359376	170.7634277343751	95.09540557861331	-268.317596435547	-246.3970031738282	57.23238754272464	-218.0264892578126	217.0246887207032	139.2875366210938	148.6866760253907	128.0703277587891	512.9459228515627	-307.8631591796876	16.37155151367188	87.35610198974612	-240.3951873779298	21.45222091674805	305.4114990234376	-264.0672302246095	34.24037170410158	110.5442962646485	-22.96165466308594	234.9790191650392	80.39287567138675	-257.617889404297	-56.49760437011722	89.67720794677737	-234.6542968750001	-54.80403137207034	162.3623352050782	-242.5449829101564	-50.54132080078128	97.40660095214849	-162.1764526367188	16.37154388427735	87.35610961914065	-240.3952178955079	115.298454284668	532.8007812500002	-518.4678344726565	-313.7029418945314	544.7671508789065	-542.9442138671877	89.89945983886722	496.8758239746096	-90.85961914062503	125.1564025878907	960.995483398438	-481.9080810546877	170.4815979003907	91.67820739746097	-553.582702636719	-243.1726074218751	47.20160293579103	-644.914489746094	83.63971710205081	47.80428314208986	-138.8983764648438	117.7733459472657	513.0170898437502	-520.0427246093752	17.43424224853516	81.62361145019534	-585.080993652344	18.69855308532716	299.0627441406251	-561.810974121094	-5.228673934936525	58.60879516601565	-368.795135498047	234.9375000000001	77.9616394042969	-562.6801757812502	-55.06683731079104	82.84427642822268	-592.5479125976565	-54.64538574218753	155.3239898681641	-584.7912597656252	-62.62112808227542	75.17267608642581	-520.4526367187502	17.43424606323243	81.62360382080081	-585.080993652344	-8.398252487182621	-4.925091266632082	1.808012962341309	0.4571964740753176	-5.720207691192629	4.431921958923342	0	0	7.17553281784058	4.772749578364768e-13	1.624139308929444	7.178453922271732	-2.165534496307374	0.7817884683609013	5.290993213653566	-0.1702728271484376	-8.464045524597172	8.426975250244144	-1.654452399732498e-13	5.81564235687256	7.599922657012943	0	0	7.560568809509281	-2.334259986877442	4.280679702758791	3.809941530227663	2.334259986877442	-4.280679702758791	3.809941530227663	-6.213353633880619	-4.502389430999758	-91.82442474365237	-6.140780925750736	-5.879375934600832	-90.9645690917969	115.7776489257813	955.1630859375005	-353.4553833007814	125.1563873291016	960.995483398438	-481.9081115722659	126.0059204101563	533.1509399414065	-309.775360107422	115.298454284668	532.800720214844	-518.4678344726565	170.7634277343751	95.09540557861331	-268.3175659179689	170.4816131591797	91.67820739746097	-553.5826416015627	
